<mxfile host="app.diagrams.net" modified="2023-12-05T20:12:26.594Z" agent="Mozilla/5.0 (X11; Linux x86_64) AppleWebKit/537.36 (KHTML, like Gecko) Chrome/119.0.0.0 Safari/537.36" etag="aZMQoK5sPQY5KSQS0Mjc" version="22.1.5" type="device">
  <diagram id="C5RBs43oDa-KdzZeNtuy" name="Page-1">
    <mxGraphModel dx="3834" dy="2927" grid="1" gridSize="10" guides="1" tooltips="1" connect="1" arrows="1" fold="1" page="1" pageScale="1" pageWidth="827" pageHeight="1169" math="0" shadow="0">
      <root>
        <mxCell id="WIyWlLk6GJQsqaUBKTNV-0" />
        <mxCell id="WIyWlLk6GJQsqaUBKTNV-1" parent="WIyWlLk6GJQsqaUBKTNV-0" />
        <mxCell id="gxtJP8Bp-ynCILGzR_Fp-68" value="" style="shape=folder;fontStyle=1;spacingTop=10;tabWidth=40;tabHeight=14;tabPosition=left;html=1;whiteSpace=wrap;fillColor=#76608a;strokeColor=#432D57;fontColor=#ffffff;" vertex="1" parent="WIyWlLk6GJQsqaUBKTNV-1">
          <mxGeometry x="360" y="600" width="570" height="550" as="geometry" />
        </mxCell>
        <mxCell id="gxtJP8Bp-ynCILGzR_Fp-69" value="com.dnbias.hroom.insertion" style="text;html=1;align=right;verticalAlign=middle;rounded=0;fontStyle=0;fontFamily=Courier New;fontSize=20;fillColor=none;strokeColor=none;" vertex="1" parent="WIyWlLk6GJQsqaUBKTNV-1">
          <mxGeometry x="570" y="620" width="350" height="30" as="geometry" />
        </mxCell>
        <mxCell id="gxtJP8Bp-ynCILGzR_Fp-65" value="" style="shape=folder;fontStyle=1;spacingTop=10;tabWidth=40;tabHeight=14;tabPosition=left;html=1;whiteSpace=wrap;fillColor=#e3c800;strokeColor=#B09500;fontColor=#000000;" vertex="1" parent="WIyWlLk6GJQsqaUBKTNV-1">
          <mxGeometry x="-710" y="600" width="870" height="550" as="geometry" />
        </mxCell>
        <mxCell id="gxtJP8Bp-ynCILGzR_Fp-66" value="com.dnbias.hroom.reservation" style="text;html=1;align=left;verticalAlign=middle;rounded=0;fontStyle=0;fontFamily=Courier New;fontSize=20;fillColor=none;strokeColor=none;" vertex="1" parent="WIyWlLk6GJQsqaUBKTNV-1">
          <mxGeometry x="-700" y="620" width="380" height="30" as="geometry" />
        </mxCell>
        <mxCell id="gxtJP8Bp-ynCILGzR_Fp-31" value="" style="shape=folder;fontStyle=1;spacingTop=10;tabWidth=40;tabHeight=14;tabPosition=left;html=1;whiteSpace=wrap;fillColor=#ffe6cc;strokeColor=#d79b00;" vertex="1" parent="WIyWlLk6GJQsqaUBKTNV-1">
          <mxGeometry x="-710" y="-30" width="540" height="550" as="geometry" />
        </mxCell>
        <mxCell id="gxtJP8Bp-ynCILGzR_Fp-16" value="" style="shape=folder;fontStyle=1;spacingTop=10;tabWidth=40;tabHeight=14;tabPosition=left;html=1;whiteSpace=wrap;fillColor=#dae8fc;strokeColor=#6c8ebf;" vertex="1" parent="WIyWlLk6GJQsqaUBKTNV-1">
          <mxGeometry x="600" y="-30" width="730" height="550" as="geometry" />
        </mxCell>
        <mxCell id="gxtJP8Bp-ynCILGzR_Fp-62" style="edgeStyle=orthogonalEdgeStyle;rounded=0;orthogonalLoop=1;jettySize=auto;html=1;entryX=0.5;entryY=1;entryDx=0;entryDy=0;" edge="1" parent="WIyWlLk6GJQsqaUBKTNV-1" source="gxtJP8Bp-ynCILGzR_Fp-54" target="gxtJP8Bp-ynCILGzR_Fp-50">
          <mxGeometry relative="1" as="geometry" />
        </mxCell>
        <mxCell id="gxtJP8Bp-ynCILGzR_Fp-14" value="" style="shape=folder;fontStyle=1;spacingTop=10;tabWidth=40;tabHeight=14;tabPosition=left;html=1;whiteSpace=wrap;fillColor=#d5e8d4;strokeColor=#82b366;" vertex="1" parent="WIyWlLk6GJQsqaUBKTNV-1">
          <mxGeometry x="-160" y="-30" width="730" height="550" as="geometry" />
        </mxCell>
        <mxCell id="zkfFHV4jXpPFQw0GAbJ--0" value="User" style="swimlane;fontStyle=2;align=center;verticalAlign=top;childLayout=stackLayout;horizontal=1;startSize=26;horizontalStack=0;resizeParent=1;resizeLast=0;collapsible=1;marginBottom=0;rounded=0;shadow=0;strokeWidth=1;fillColor=default;labelBackgroundColor=default;labelBorderColor=none;gradientColor=none;swimlaneFillColor=default;" parent="WIyWlLk6GJQsqaUBKTNV-1" vertex="1">
          <mxGeometry x="220" y="10" width="160" height="240" as="geometry">
            <mxRectangle x="220" y="40" width="160" height="26" as="alternateBounds" />
          </mxGeometry>
        </mxCell>
        <mxCell id="zkfFHV4jXpPFQw0GAbJ--1" value="- id: Long&#xa;- capability: Capability&#xa;- username: String&#xa;- password: String&#xa;- name: String&#xa;- surname: String&#xa;- birthdate: Date" style="text;align=left;verticalAlign=top;spacingLeft=4;spacingRight=4;overflow=hidden;rotatable=0;points=[[0,0.5],[1,0.5]];portConstraint=eastwest;" parent="zkfFHV4jXpPFQw0GAbJ--0" vertex="1">
          <mxGeometry y="26" width="160" height="104" as="geometry" />
        </mxCell>
        <mxCell id="zkfFHV4jXpPFQw0GAbJ--4" value="" style="line;html=1;strokeWidth=1;align=left;verticalAlign=middle;spacingTop=-1;spacingLeft=3;spacingRight=3;rotatable=0;labelPosition=right;points=[];portConstraint=eastwest;" parent="zkfFHV4jXpPFQw0GAbJ--0" vertex="1">
          <mxGeometry y="130" width="160" height="10" as="geometry" />
        </mxCell>
        <mxCell id="p2NiV_iMH0gN7rx2WyT5-13" value="+ equals(Object): boolean&lt;br&gt;+ hashCode(): int&lt;br&gt;+ toString(): String" style="text;html=1;align=left;verticalAlign=top;resizable=0;points=[];autosize=1;strokeColor=none;fillColor=none;" parent="zkfFHV4jXpPFQw0GAbJ--0" vertex="1">
          <mxGeometry y="140" width="160" height="60" as="geometry" />
        </mxCell>
        <mxCell id="zkfFHV4jXpPFQw0GAbJ--6" value="Tenant" style="swimlane;fontStyle=0;align=center;verticalAlign=top;childLayout=stackLayout;horizontal=1;startSize=26;horizontalStack=0;resizeParent=1;resizeLast=0;collapsible=1;marginBottom=0;rounded=0;shadow=0;strokeWidth=1;fillColor=default;labelBackgroundColor=default;labelBorderColor=none;gradientColor=none;swimlaneFillColor=default;" parent="WIyWlLk6GJQsqaUBKTNV-1" vertex="1">
          <mxGeometry x="-150" y="366" width="270" height="134" as="geometry">
            <mxRectangle x="130" y="380" width="160" height="26" as="alternateBounds" />
          </mxGeometry>
        </mxCell>
        <mxCell id="zkfFHV4jXpPFQw0GAbJ--7" value="- residence: String&#xa;- savedInsertions: List&lt;Insertion&gt;&#xa;- preferredPayment: Payment&#xa;- receivedFeedbacks: List&lt;FeedbackOfTenant&gt;&#xa;- reservations: HashMap&lt;Reservation&gt;&#xa;&#xa;" style="text;align=left;verticalAlign=top;spacingLeft=4;spacingRight=4;overflow=hidden;rotatable=0;points=[[0,0.5],[1,0.5]];portConstraint=eastwest;" parent="zkfFHV4jXpPFQw0GAbJ--6" vertex="1">
          <mxGeometry y="26" width="270" height="84" as="geometry" />
        </mxCell>
        <mxCell id="zkfFHV4jXpPFQw0GAbJ--9" value="" style="line;html=1;strokeWidth=1;align=left;verticalAlign=middle;spacingTop=-1;spacingLeft=3;spacingRight=3;rotatable=0;labelPosition=right;points=[];portConstraint=eastwest;" parent="zkfFHV4jXpPFQw0GAbJ--6" vertex="1">
          <mxGeometry y="110" width="270" height="8" as="geometry" />
        </mxCell>
        <mxCell id="zkfFHV4jXpPFQw0GAbJ--12" value="" style="endArrow=block;endSize=10;endFill=0;shadow=0;strokeWidth=1;rounded=0;edgeStyle=elbowEdgeStyle;elbow=vertical;" parent="WIyWlLk6GJQsqaUBKTNV-1" source="zkfFHV4jXpPFQw0GAbJ--6" target="zkfFHV4jXpPFQw0GAbJ--0" edge="1">
          <mxGeometry width="160" relative="1" as="geometry">
            <mxPoint x="200" y="203" as="sourcePoint" />
            <mxPoint x="200" y="203" as="targetPoint" />
            <Array as="points">
              <mxPoint x="160" y="310" />
            </Array>
          </mxGeometry>
        </mxCell>
        <mxCell id="zkfFHV4jXpPFQw0GAbJ--13" value="Landlord" style="swimlane;fontStyle=0;align=center;verticalAlign=top;childLayout=stackLayout;horizontal=1;startSize=26;horizontalStack=0;resizeParent=1;resizeLast=0;collapsible=1;marginBottom=0;rounded=0;shadow=0;strokeWidth=1;fillColor=default;labelBackgroundColor=default;labelBorderColor=none;gradientColor=none;swimlaneFillColor=default;" parent="WIyWlLk6GJQsqaUBKTNV-1" vertex="1">
          <mxGeometry x="339" y="366" width="220" height="145" as="geometry">
            <mxRectangle x="340" y="380" width="170" height="26" as="alternateBounds" />
          </mxGeometry>
        </mxCell>
        <mxCell id="zkfFHV4jXpPFQw0GAbJ--14" value="- residence: String&#xa;- insertions: ArrayList&lt;Insertion&gt;&#xa;- feedbackMean: float&#xa;- numberOfInsertions: int&#xa;- numberOfRents: int&#xa;- reports: ArrayList&lt;Report&gt;&#xa;- reservations: ArrayList&lt;Reservation&gt;&#xa;" style="text;align=left;verticalAlign=top;spacingLeft=4;spacingRight=4;overflow=hidden;rotatable=0;points=[[0,0.5],[1,0.5]];portConstraint=eastwest;" parent="zkfFHV4jXpPFQw0GAbJ--13" vertex="1">
          <mxGeometry y="26" width="220" height="104" as="geometry" />
        </mxCell>
        <mxCell id="zkfFHV4jXpPFQw0GAbJ--15" value="" style="line;html=1;strokeWidth=1;align=left;verticalAlign=middle;spacingTop=-1;spacingLeft=3;spacingRight=3;rotatable=0;labelPosition=right;points=[];portConstraint=eastwest;" parent="zkfFHV4jXpPFQw0GAbJ--13" vertex="1">
          <mxGeometry y="130" width="220" height="8" as="geometry" />
        </mxCell>
        <mxCell id="zkfFHV4jXpPFQw0GAbJ--16" value="" style="endArrow=block;endSize=10;endFill=0;shadow=0;strokeWidth=1;rounded=0;edgeStyle=elbowEdgeStyle;elbow=vertical;" parent="WIyWlLk6GJQsqaUBKTNV-1" edge="1">
          <mxGeometry width="160" relative="1" as="geometry">
            <mxPoint x="389.52" y="365" as="sourcePoint" />
            <mxPoint x="300" y="250" as="targetPoint" />
            <Array as="points">
              <mxPoint x="350" y="310" />
            </Array>
          </mxGeometry>
        </mxCell>
        <mxCell id="zkfFHV4jXpPFQw0GAbJ--17" value="FeedbackOfTennant" style="swimlane;fontStyle=0;align=center;verticalAlign=top;childLayout=stackLayout;horizontal=1;startSize=26;horizontalStack=0;resizeParent=1;resizeLast=0;collapsible=1;marginBottom=0;rounded=0;shadow=0;strokeWidth=1;swimlaneFillColor=default;" parent="WIyWlLk6GJQsqaUBKTNV-1" vertex="1">
          <mxGeometry x="-668.5" y="354" width="160" height="116" as="geometry">
            <mxRectangle x="550" y="140" width="160" height="26" as="alternateBounds" />
          </mxGeometry>
        </mxCell>
        <mxCell id="p2NiV_iMH0gN7rx2WyT5-4" value="- target: Tenant" style="text;html=1;align=left;verticalAlign=middle;resizable=0;points=[];autosize=1;strokeColor=none;fillColor=none;" parent="zkfFHV4jXpPFQw0GAbJ--17" vertex="1">
          <mxGeometry y="26" width="160" height="30" as="geometry" />
        </mxCell>
        <mxCell id="zkfFHV4jXpPFQw0GAbJ--23" value="" style="line;html=1;strokeWidth=1;align=left;verticalAlign=middle;spacingTop=-1;spacingLeft=3;spacingRight=3;rotatable=0;labelPosition=right;points=[];portConstraint=eastwest;" parent="zkfFHV4jXpPFQw0GAbJ--17" vertex="1">
          <mxGeometry y="56" width="160" height="54" as="geometry" />
        </mxCell>
        <mxCell id="wfxfI5iOZnwXjlkPvfiG-5" value="Report" style="swimlane;fontStyle=0;align=center;verticalAlign=top;childLayout=stackLayout;horizontal=1;startSize=26;horizontalStack=0;resizeParent=1;resizeLast=0;collapsible=1;marginBottom=0;rounded=0;shadow=0;strokeWidth=1;swimlaneFillColor=default;" parent="WIyWlLk6GJQsqaUBKTNV-1" vertex="1">
          <mxGeometry x="399" y="5" width="160" height="250" as="geometry">
            <mxRectangle x="340" y="380" width="170" height="26" as="alternateBounds" />
          </mxGeometry>
        </mxCell>
        <mxCell id="p2NiV_iMH0gN7rx2WyT5-6" value="&lt;div&gt;- reportID&lt;/div&gt;&lt;div&gt;- totalEarnings&lt;/div&gt;&lt;div&gt;- totalHourRented&lt;/div&gt;&lt;div&gt;- numberOfRentals&lt;/div&gt;&lt;div&gt;- numberOfClients&lt;br&gt;&lt;/div&gt;&lt;div&gt;- monthlyEarnings&lt;br&gt;&lt;/div&gt;" style="text;html=1;align=left;verticalAlign=middle;resizable=0;points=[];autosize=1;strokeColor=none;fillColor=none;" parent="wfxfI5iOZnwXjlkPvfiG-5" vertex="1">
          <mxGeometry y="26" width="160" height="100" as="geometry" />
        </mxCell>
        <mxCell id="wfxfI5iOZnwXjlkPvfiG-7" value="" style="line;html=1;strokeWidth=1;align=left;verticalAlign=middle;spacingTop=-1;spacingLeft=3;spacingRight=3;rotatable=0;labelPosition=right;points=[];portConstraint=eastwest;" parent="wfxfI5iOZnwXjlkPvfiG-5" vertex="1">
          <mxGeometry y="126" width="160" height="64" as="geometry" />
        </mxCell>
        <mxCell id="p2NiV_iMH0gN7rx2WyT5-11" value="&lt;div&gt;+ printReport()&lt;/div&gt;&lt;div&gt;+ showReport()&lt;/div&gt;&lt;div&gt;&lt;br&gt;&lt;/div&gt;" style="text;html=1;align=left;verticalAlign=middle;resizable=0;points=[];autosize=1;strokeColor=none;fillColor=none;" parent="wfxfI5iOZnwXjlkPvfiG-5" vertex="1">
          <mxGeometry y="190" width="160" height="60" as="geometry" />
        </mxCell>
        <mxCell id="wfxfI5iOZnwXjlkPvfiG-14" value="Insertion" style="swimlane;fontStyle=2;align=center;verticalAlign=top;childLayout=stackLayout;horizontal=1;startSize=26;horizontalStack=0;resizeParent=1;resizeLast=0;collapsible=1;marginBottom=0;rounded=0;shadow=0;strokeWidth=1;swimlaneFillColor=default;" parent="WIyWlLk6GJQsqaUBKTNV-1" vertex="1">
          <mxGeometry x="470" y="690" width="160" height="250" as="geometry">
            <mxRectangle x="340" y="380" width="170" height="26" as="alternateBounds" />
          </mxGeometry>
        </mxCell>
        <mxCell id="wfxfI5iOZnwXjlkPvfiG-15" value="- features&#xa;- description&#xa;- price&#xa;- city&#xa;- address&#xa;- receivedFeedbacks&#xa;- area (in meters)&#xa;- landlord&#xa;- photos&#xa;- name&#xa;- meanRating&#xa;- availability&#xa;- rentableID&#xa;&#xa;&#xa;&#xa;&#xa;&#xa;&#xa;" style="text;align=left;verticalAlign=middle;spacingLeft=4;spacingRight=4;overflow=hidden;rotatable=0;points=[[0,0.5],[1,0.5]];portConstraint=eastwest;labelPosition=center;verticalLabelPosition=middle;" parent="wfxfI5iOZnwXjlkPvfiG-14" vertex="1">
          <mxGeometry y="26" width="160" height="184" as="geometry" />
        </mxCell>
        <mxCell id="wfxfI5iOZnwXjlkPvfiG-16" value="" style="line;html=1;strokeWidth=1;align=left;verticalAlign=middle;spacingTop=-1;spacingLeft=3;spacingRight=3;rotatable=0;labelPosition=right;points=[];portConstraint=eastwest;" parent="wfxfI5iOZnwXjlkPvfiG-14" vertex="1">
          <mxGeometry y="210" width="160" height="8" as="geometry" />
        </mxCell>
        <mxCell id="p2NiV_iMH0gN7rx2WyT5-10" value="+ createDisponibility()" style="text;html=1;align=left;verticalAlign=middle;resizable=0;points=[];autosize=1;strokeColor=none;fillColor=none;" parent="wfxfI5iOZnwXjlkPvfiG-14" vertex="1">
          <mxGeometry y="218" width="160" height="30" as="geometry" />
        </mxCell>
        <mxCell id="wfxfI5iOZnwXjlkPvfiG-17" value="Room" style="swimlane;fontStyle=0;align=center;verticalAlign=top;childLayout=stackLayout;horizontal=1;startSize=26;horizontalStack=0;resizeParent=1;resizeLast=0;collapsible=1;marginBottom=0;rounded=0;shadow=0;strokeWidth=1;swimlaneFillColor=default;" parent="WIyWlLk6GJQsqaUBKTNV-1" vertex="1">
          <mxGeometry x="385" y="1020" width="160" height="70" as="geometry">
            <mxRectangle x="340" y="380" width="170" height="26" as="alternateBounds" />
          </mxGeometry>
        </mxCell>
        <mxCell id="wfxfI5iOZnwXjlkPvfiG-18" value="- " style="text;align=left;verticalAlign=top;spacingLeft=4;spacingRight=4;overflow=hidden;rotatable=0;points=[[0,0.5],[1,0.5]];portConstraint=eastwest;" parent="wfxfI5iOZnwXjlkPvfiG-17" vertex="1">
          <mxGeometry y="26" width="160" height="26" as="geometry" />
        </mxCell>
        <mxCell id="wfxfI5iOZnwXjlkPvfiG-19" value="" style="line;html=1;strokeWidth=1;align=left;verticalAlign=middle;spacingTop=-1;spacingLeft=3;spacingRight=3;rotatable=0;labelPosition=right;points=[];portConstraint=eastwest;" parent="wfxfI5iOZnwXjlkPvfiG-17" vertex="1">
          <mxGeometry y="52" width="160" height="8" as="geometry" />
        </mxCell>
        <mxCell id="wfxfI5iOZnwXjlkPvfiG-20" value="Apartment" style="swimlane;fontStyle=0;align=center;verticalAlign=top;childLayout=stackLayout;horizontal=1;startSize=26;horizontalStack=0;resizeParent=1;resizeLast=0;collapsible=1;marginBottom=0;rounded=0;shadow=0;strokeWidth=1;swimlaneFillColor=default;" parent="WIyWlLk6GJQsqaUBKTNV-1" vertex="1">
          <mxGeometry x="549" y="1020" width="160" height="70" as="geometry">
            <mxRectangle x="340" y="380" width="170" height="26" as="alternateBounds" />
          </mxGeometry>
        </mxCell>
        <mxCell id="wfxfI5iOZnwXjlkPvfiG-21" value="- numberOfRooms" style="text;align=left;verticalAlign=top;spacingLeft=4;spacingRight=4;overflow=hidden;rotatable=0;points=[[0,0.5],[1,0.5]];portConstraint=eastwest;" parent="wfxfI5iOZnwXjlkPvfiG-20" vertex="1">
          <mxGeometry y="26" width="160" height="26" as="geometry" />
        </mxCell>
        <mxCell id="wfxfI5iOZnwXjlkPvfiG-22" value="" style="line;html=1;strokeWidth=1;align=left;verticalAlign=middle;spacingTop=-1;spacingLeft=3;spacingRight=3;rotatable=0;labelPosition=right;points=[];portConstraint=eastwest;" parent="wfxfI5iOZnwXjlkPvfiG-20" vertex="1">
          <mxGeometry y="52" width="160" height="8" as="geometry" />
        </mxCell>
        <mxCell id="wfxfI5iOZnwXjlkPvfiG-23" value="Reservation" style="swimlane;fontStyle=0;align=center;verticalAlign=top;childLayout=stackLayout;horizontal=1;startSize=26;horizontalStack=0;resizeParent=1;resizeLast=0;collapsible=1;marginBottom=0;rounded=0;shadow=0;strokeWidth=1;swimlaneFillColor=default;" parent="WIyWlLk6GJQsqaUBKTNV-1" vertex="1">
          <mxGeometry x="-150" y="660" width="160" height="170" as="geometry">
            <mxRectangle x="340" y="380" width="170" height="26" as="alternateBounds" />
          </mxGeometry>
        </mxCell>
        <mxCell id="wfxfI5iOZnwXjlkPvfiG-24" value="- transaction&#xa;- checkIn&#xa;- checkOut&#xa;- tenant&#xa;- rented&#xa;- reservationID&#xa;&#xa;" style="text;align=left;verticalAlign=top;spacingLeft=4;spacingRight=4;overflow=hidden;rotatable=0;points=[[0,0.5],[1,0.5]];portConstraint=eastwest;" parent="wfxfI5iOZnwXjlkPvfiG-23" vertex="1">
          <mxGeometry y="26" width="160" height="94" as="geometry" />
        </mxCell>
        <mxCell id="wfxfI5iOZnwXjlkPvfiG-25" value="" style="line;html=1;strokeWidth=1;align=left;verticalAlign=middle;spacingTop=-1;spacingLeft=3;spacingRight=3;rotatable=0;labelPosition=right;points=[];portConstraint=eastwest;" parent="wfxfI5iOZnwXjlkPvfiG-23" vertex="1">
          <mxGeometry y="120" width="160" height="8" as="geometry" />
        </mxCell>
        <mxCell id="p2NiV_iMH0gN7rx2WyT5-7" value="&lt;div&gt;+ addCheckIn()&lt;/div&gt;&lt;div&gt;+ addCheckOut()&lt;/div&gt;" style="text;html=1;align=left;verticalAlign=middle;resizable=0;points=[];autosize=1;strokeColor=none;fillColor=none;" parent="wfxfI5iOZnwXjlkPvfiG-23" vertex="1">
          <mxGeometry y="128" width="160" height="40" as="geometry" />
        </mxCell>
        <mxCell id="wfxfI5iOZnwXjlkPvfiG-26" value="Transaction" style="swimlane;fontStyle=0;align=center;verticalAlign=top;childLayout=stackLayout;horizontal=1;startSize=26;horizontalStack=0;resizeParent=1;resizeLast=0;collapsible=1;marginBottom=0;rounded=0;shadow=0;strokeWidth=1;swimlaneFillColor=default;" parent="WIyWlLk6GJQsqaUBKTNV-1" vertex="1">
          <mxGeometry x="-144.25" y="920" width="160" height="150" as="geometry">
            <mxRectangle x="340" y="380" width="170" height="26" as="alternateBounds" />
          </mxGeometry>
        </mxCell>
        <mxCell id="wfxfI5iOZnwXjlkPvfiG-27" value="- paymentType&#xa;- paymentAmount&#xa;- status&#xa;" style="text;align=left;verticalAlign=top;spacingLeft=4;spacingRight=4;overflow=hidden;rotatable=0;points=[[0,0.5],[1,0.5]];portConstraint=eastwest;" parent="wfxfI5iOZnwXjlkPvfiG-26" vertex="1">
          <mxGeometry y="26" width="160" height="74" as="geometry" />
        </mxCell>
        <mxCell id="wfxfI5iOZnwXjlkPvfiG-28" value="" style="line;html=1;strokeWidth=1;align=left;verticalAlign=middle;spacingTop=-1;spacingLeft=3;spacingRight=3;rotatable=0;labelPosition=right;points=[];portConstraint=eastwest;" parent="wfxfI5iOZnwXjlkPvfiG-26" vertex="1">
          <mxGeometry y="100" width="160" height="8" as="geometry" />
        </mxCell>
        <mxCell id="p2NiV_iMH0gN7rx2WyT5-8" value="&lt;div&gt;+ checkStatus()&lt;br&gt;&lt;/div&gt;&lt;div&gt;+ executeTransaction()&lt;br&gt;&lt;/div&gt;" style="text;html=1;align=left;verticalAlign=middle;resizable=0;points=[];autosize=1;strokeColor=none;fillColor=none;" parent="wfxfI5iOZnwXjlkPvfiG-26" vertex="1">
          <mxGeometry y="108" width="160" height="40" as="geometry" />
        </mxCell>
        <mxCell id="wfxfI5iOZnwXjlkPvfiG-55" value="Feedback" style="swimlane;fontStyle=2;align=center;verticalAlign=top;childLayout=stackLayout;horizontal=1;startSize=26;horizontalStack=0;resizeParent=1;resizeLast=0;collapsible=1;marginBottom=0;rounded=0;shadow=0;strokeWidth=1;swimlaneFillColor=default;" parent="WIyWlLk6GJQsqaUBKTNV-1" vertex="1">
          <mxGeometry x="-573" y="40" width="160" height="200" as="geometry">
            <mxRectangle x="340" y="380" width="170" height="26" as="alternateBounds" />
          </mxGeometry>
        </mxCell>
        <mxCell id="wfxfI5iOZnwXjlkPvfiG-56" value="- writer&#xa;- rating&#xa;- description&#xa;- timestamp&#xa;- target&#xa;" style="text;align=left;verticalAlign=top;spacingLeft=4;spacingRight=4;overflow=hidden;rotatable=0;points=[[0,0.5],[1,0.5]];portConstraint=eastwest;" parent="wfxfI5iOZnwXjlkPvfiG-55" vertex="1">
          <mxGeometry y="26" width="160" height="104" as="geometry" />
        </mxCell>
        <mxCell id="wfxfI5iOZnwXjlkPvfiG-57" value="" style="line;html=1;strokeWidth=1;align=left;verticalAlign=middle;spacingTop=-1;spacingLeft=3;spacingRight=3;rotatable=0;labelPosition=right;points=[];portConstraint=eastwest;" parent="wfxfI5iOZnwXjlkPvfiG-55" vertex="1">
          <mxGeometry y="130" width="160" height="8" as="geometry" />
        </mxCell>
        <mxCell id="wfxfI5iOZnwXjlkPvfiG-60" value="" style="endArrow=block;endSize=10;endFill=0;shadow=0;strokeWidth=1;rounded=0;edgeStyle=elbowEdgeStyle;elbow=vertical;exitX=0.5;exitY=0;exitDx=0;exitDy=0;" parent="WIyWlLk6GJQsqaUBKTNV-1" source="wfxfI5iOZnwXjlkPvfiG-2" edge="1">
          <mxGeometry width="160" relative="1" as="geometry">
            <mxPoint x="10" y="358.0000000000001" as="sourcePoint" />
            <mxPoint x="300" y="250" as="targetPoint" />
            <Array as="points">
              <mxPoint x="260" y="310" />
            </Array>
          </mxGeometry>
        </mxCell>
        <mxCell id="wfxfI5iOZnwXjlkPvfiG-61" value="" style="endArrow=block;endSize=10;endFill=0;shadow=0;strokeWidth=1;rounded=0;edgeStyle=elbowEdgeStyle;elbow=vertical;exitX=0.5;exitY=0;exitDx=0;exitDy=0;entryX=0.5;entryY=1;entryDx=0;entryDy=0;" parent="WIyWlLk6GJQsqaUBKTNV-1" edge="1" target="wfxfI5iOZnwXjlkPvfiG-55" source="wfxfI5iOZnwXjlkPvfiG-93">
          <mxGeometry width="160" relative="1" as="geometry">
            <mxPoint x="-340" y="330" as="sourcePoint" />
            <mxPoint x="-450" y="250" as="targetPoint" />
            <Array as="points">
              <mxPoint x="-400" y="300" />
            </Array>
          </mxGeometry>
        </mxCell>
        <mxCell id="wfxfI5iOZnwXjlkPvfiG-62" value="" style="endArrow=block;endSize=10;endFill=0;shadow=0;strokeWidth=1;rounded=0;edgeStyle=elbowEdgeStyle;elbow=vertical;exitX=0.5;exitY=0;exitDx=0;exitDy=0;entryX=0.5;entryY=1;entryDx=0;entryDy=0;" parent="WIyWlLk6GJQsqaUBKTNV-1" edge="1" target="wfxfI5iOZnwXjlkPvfiG-55" source="zkfFHV4jXpPFQw0GAbJ--17">
          <mxGeometry width="160" relative="1" as="geometry">
            <mxPoint x="-550" y="330" as="sourcePoint" />
            <mxPoint x="-450" y="250" as="targetPoint" />
            <Array as="points">
              <mxPoint x="-500" y="300" />
            </Array>
          </mxGeometry>
        </mxCell>
        <mxCell id="wfxfI5iOZnwXjlkPvfiG-63" value="" style="endArrow=block;endSize=10;endFill=0;shadow=0;strokeWidth=1;rounded=0;edgeStyle=elbowEdgeStyle;elbow=vertical;exitX=0.5;exitY=0;exitDx=0;exitDy=0;entryX=0.498;entryY=1.08;entryDx=0;entryDy=0;entryPerimeter=0;" parent="WIyWlLk6GJQsqaUBKTNV-1" source="wfxfI5iOZnwXjlkPvfiG-17" edge="1" target="p2NiV_iMH0gN7rx2WyT5-10">
          <mxGeometry width="160" relative="1" as="geometry">
            <mxPoint x="520" y="960" as="sourcePoint" />
            <mxPoint x="540" y="960" as="targetPoint" />
            <Array as="points" />
          </mxGeometry>
        </mxCell>
        <mxCell id="wfxfI5iOZnwXjlkPvfiG-64" value="" style="endArrow=block;endSize=10;endFill=0;shadow=0;strokeWidth=1;rounded=0;edgeStyle=elbowEdgeStyle;elbow=vertical;exitX=0.5;exitY=0;exitDx=0;exitDy=0;entryX=0.5;entryY=1;entryDx=0;entryDy=0;" parent="WIyWlLk6GJQsqaUBKTNV-1" source="wfxfI5iOZnwXjlkPvfiG-20" target="wfxfI5iOZnwXjlkPvfiG-14" edge="1">
          <mxGeometry width="160" relative="1" as="geometry">
            <mxPoint x="530" y="970" as="sourcePoint" />
            <mxPoint x="600" y="860" as="targetPoint" />
            <Array as="points" />
          </mxGeometry>
        </mxCell>
        <mxCell id="wfxfI5iOZnwXjlkPvfiG-65" value="&lt;div style=&quot;font-size: 8px;&quot;&gt;feedbackMean:&lt;/div&gt;mean of all the feedbacks received by the rooms the landlord rents" style="text;html=1;strokeColor=#6c8ebf;fillColor=#dae8fc;align=center;verticalAlign=middle;whiteSpace=wrap;rounded=0;fontSize=8;" parent="WIyWlLk6GJQsqaUBKTNV-1" vertex="1">
          <mxGeometry x="429" y="318" width="130" height="36" as="geometry" />
        </mxCell>
        <mxCell id="wfxfI5iOZnwXjlkPvfiG-66" value="&lt;div style=&quot;font-size: 8px;&quot;&gt;numberOfRents:&lt;/div&gt;number of the all the rents made " style="text;html=1;strokeColor=#6c8ebf;fillColor=#dae8fc;align=center;verticalAlign=middle;whiteSpace=wrap;rounded=0;fontSize=8;" parent="WIyWlLk6GJQsqaUBKTNV-1" vertex="1">
          <mxGeometry x="429" y="292" width="130" height="26" as="geometry" />
        </mxCell>
        <mxCell id="wfxfI5iOZnwXjlkPvfiG-71" value="TargetOfFeedback" style="swimlane;fontStyle=2;align=center;verticalAlign=top;childLayout=stackLayout;horizontal=1;startSize=26;horizontalStack=0;resizeParent=1;resizeLast=0;collapsible=1;marginBottom=0;rounded=0;shadow=0;strokeWidth=1;swimlaneFillColor=default;" parent="WIyWlLk6GJQsqaUBKTNV-1" vertex="1">
          <mxGeometry x="-348.5" y="240" width="160" height="66" as="geometry">
            <mxRectangle x="340" y="380" width="170" height="26" as="alternateBounds" />
          </mxGeometry>
        </mxCell>
        <mxCell id="wfxfI5iOZnwXjlkPvfiG-73" value="" style="line;html=1;strokeWidth=1;align=left;verticalAlign=middle;spacingTop=-1;spacingLeft=3;spacingRight=3;rotatable=0;labelPosition=right;points=[];portConstraint=eastwest;" parent="wfxfI5iOZnwXjlkPvfiG-71" vertex="1">
          <mxGeometry y="26" width="160" height="8" as="geometry" />
        </mxCell>
        <mxCell id="wfxfI5iOZnwXjlkPvfiG-72" value="&#xa;" style="text;align=left;verticalAlign=top;spacingLeft=4;spacingRight=4;overflow=hidden;rotatable=0;points=[[0,0.5],[1,0.5]];portConstraint=eastwest;" parent="wfxfI5iOZnwXjlkPvfiG-71" vertex="1">
          <mxGeometry y="34" width="160" height="26" as="geometry" />
        </mxCell>
        <mxCell id="wfxfI5iOZnwXjlkPvfiG-76" value="" style="endArrow=block;endSize=10;endFill=0;shadow=0;strokeWidth=1;rounded=0;edgeStyle=elbowEdgeStyle;elbow=vertical;exitX=0.25;exitY=0;exitDx=0;exitDy=0;entryX=0.5;entryY=1;entryDx=0;entryDy=0;" parent="WIyWlLk6GJQsqaUBKTNV-1" source="wfxfI5iOZnwXjlkPvfiG-14" target="wfxfI5iOZnwXjlkPvfiG-71" edge="1">
          <mxGeometry width="160" relative="1" as="geometry">
            <mxPoint x="319" y="572" as="sourcePoint" />
            <mxPoint x="-100" y="530" as="targetPoint" />
            <Array as="points">
              <mxPoint x="40" y="570" />
            </Array>
          </mxGeometry>
        </mxCell>
        <mxCell id="wfxfI5iOZnwXjlkPvfiG-2" value="Admin" style="swimlane;fontStyle=0;align=center;verticalAlign=top;childLayout=stackLayout;horizontal=1;startSize=26;horizontalStack=0;resizeParent=1;resizeLast=0;collapsible=1;marginBottom=0;rounded=0;shadow=0;strokeWidth=1;fillColor=default;labelBackgroundColor=default;labelBorderColor=none;gradientColor=none;swimlaneFillColor=default;" parent="WIyWlLk6GJQsqaUBKTNV-1" vertex="1">
          <mxGeometry x="130" y="366" width="200" height="84" as="geometry">
            <mxRectangle x="340" y="380" width="170" height="26" as="alternateBounds" />
          </mxGeometry>
        </mxCell>
        <mxCell id="wfxfI5iOZnwXjlkPvfiG-67" value="- competence: &lt;br&gt;&amp;nbsp; &amp;nbsp; ArrayList&amp;lt;AreaOfCompetence&amp;gt;" style="text;html=1;align=left;verticalAlign=top;resizable=0;points=[];autosize=1;strokeColor=none;fillColor=none;" parent="wfxfI5iOZnwXjlkPvfiG-2" vertex="1">
          <mxGeometry y="26" width="200" height="40" as="geometry" />
        </mxCell>
        <mxCell id="wfxfI5iOZnwXjlkPvfiG-4" value="" style="line;html=1;strokeWidth=1;align=left;verticalAlign=middle;spacingTop=-1;spacingLeft=3;spacingRight=3;rotatable=0;labelPosition=right;points=[];portConstraint=eastwest;" parent="wfxfI5iOZnwXjlkPvfiG-2" vertex="1">
          <mxGeometry y="66" width="200" height="8" as="geometry" />
        </mxCell>
        <mxCell id="wfxfI5iOZnwXjlkPvfiG-53" value="&lt;div style=&quot;font-size: 8px;&quot;&gt;residence:&lt;/div&gt;&lt;div style=&quot;font-size: 8px;&quot;&gt;&amp;nbsp;meaning city, address...&lt;/div&gt;" style="text;html=1;strokeColor=#6c8ebf;fillColor=#dae8fc;align=center;verticalAlign=middle;whiteSpace=wrap;rounded=0;fontSize=8;" parent="WIyWlLk6GJQsqaUBKTNV-1" vertex="1">
          <mxGeometry x="30" y="328" width="90" height="26" as="geometry" />
        </mxCell>
        <mxCell id="wfxfI5iOZnwXjlkPvfiG-8" value="Disponibility" style="swimlane;fontStyle=0;align=center;verticalAlign=top;childLayout=stackLayout;horizontal=1;startSize=26;horizontalStack=0;resizeParent=1;resizeLast=0;collapsible=1;marginBottom=0;rounded=0;shadow=0;strokeWidth=1;swimlaneFillColor=default;" parent="WIyWlLk6GJQsqaUBKTNV-1" vertex="1">
          <mxGeometry x="720" y="750" width="160" height="130" as="geometry">
            <mxRectangle x="340" y="380" width="170" height="26" as="alternateBounds" />
          </mxGeometry>
        </mxCell>
        <mxCell id="wfxfI5iOZnwXjlkPvfiG-9" value="- weekdays&#xa;- timeStart&#xa;- timeEnd&#xa;- daysNotAvailable&#xa;&#xa;&#xa;" style="text;align=left;verticalAlign=top;spacingLeft=4;spacingRight=4;overflow=hidden;rotatable=0;points=[[0,0.5],[1,0.5]];portConstraint=eastwest;" parent="wfxfI5iOZnwXjlkPvfiG-8" vertex="1">
          <mxGeometry y="26" width="160" height="64" as="geometry" />
        </mxCell>
        <mxCell id="wfxfI5iOZnwXjlkPvfiG-10" value="" style="line;html=1;strokeWidth=1;align=left;verticalAlign=middle;spacingTop=-1;spacingLeft=3;spacingRight=3;rotatable=0;labelPosition=right;points=[];portConstraint=eastwest;" parent="wfxfI5iOZnwXjlkPvfiG-8" vertex="1">
          <mxGeometry y="90" width="160" height="8" as="geometry" />
        </mxCell>
        <mxCell id="wfxfI5iOZnwXjlkPvfiG-81" value="CheckIn" style="swimlane;fontStyle=0;align=center;verticalAlign=top;childLayout=stackLayout;horizontal=1;startSize=26;horizontalStack=0;resizeParent=1;resizeLast=0;collapsible=1;marginBottom=0;rounded=0;shadow=0;strokeWidth=1;swimlaneFillColor=default;" parent="WIyWlLk6GJQsqaUBKTNV-1" vertex="1">
          <mxGeometry x="-668.5" y="900" width="160" height="110" as="geometry">
            <mxRectangle x="340" y="380" width="170" height="26" as="alternateBounds" />
          </mxGeometry>
        </mxCell>
        <mxCell id="wfxfI5iOZnwXjlkPvfiG-82" value="- startDate&#xa;- startTime&#xa;" style="text;align=left;verticalAlign=top;spacingLeft=4;spacingRight=4;overflow=hidden;rotatable=0;points=[[0,0.5],[1,0.5]];portConstraint=eastwest;" parent="wfxfI5iOZnwXjlkPvfiG-81" vertex="1">
          <mxGeometry y="26" width="160" height="44" as="geometry" />
        </mxCell>
        <mxCell id="wfxfI5iOZnwXjlkPvfiG-83" value="" style="line;html=1;strokeWidth=1;align=left;verticalAlign=middle;spacingTop=-1;spacingLeft=3;spacingRight=3;rotatable=0;labelPosition=right;points=[];portConstraint=eastwest;" parent="wfxfI5iOZnwXjlkPvfiG-81" vertex="1">
          <mxGeometry y="70" width="160" height="8" as="geometry" />
        </mxCell>
        <mxCell id="wfxfI5iOZnwXjlkPvfiG-85" value="CheckOut" style="swimlane;fontStyle=0;align=center;verticalAlign=top;childLayout=stackLayout;horizontal=1;startSize=26;horizontalStack=0;resizeParent=1;resizeLast=0;collapsible=1;marginBottom=0;rounded=0;shadow=0;strokeWidth=1;swimlaneFillColor=default;" parent="WIyWlLk6GJQsqaUBKTNV-1" vertex="1">
          <mxGeometry x="-491.5" y="900" width="160" height="110" as="geometry">
            <mxRectangle x="340" y="380" width="170" height="26" as="alternateBounds" />
          </mxGeometry>
        </mxCell>
        <mxCell id="wfxfI5iOZnwXjlkPvfiG-86" value="- endDate&#xa;- endTime&#xa;" style="text;align=left;verticalAlign=top;spacingLeft=4;spacingRight=4;overflow=hidden;rotatable=0;points=[[0,0.5],[1,0.5]];portConstraint=eastwest;" parent="wfxfI5iOZnwXjlkPvfiG-85" vertex="1">
          <mxGeometry y="26" width="160" height="44" as="geometry" />
        </mxCell>
        <mxCell id="wfxfI5iOZnwXjlkPvfiG-87" value="" style="line;html=1;strokeWidth=1;align=left;verticalAlign=middle;spacingTop=-1;spacingLeft=3;spacingRight=3;rotatable=0;labelPosition=right;points=[];portConstraint=eastwest;" parent="wfxfI5iOZnwXjlkPvfiG-85" vertex="1">
          <mxGeometry y="70" width="160" height="8" as="geometry" />
        </mxCell>
        <mxCell id="wfxfI5iOZnwXjlkPvfiG-88" value="GeneralCheck" style="swimlane;fontStyle=2;align=center;verticalAlign=top;childLayout=stackLayout;horizontal=1;startSize=26;horizontalStack=0;resizeParent=1;resizeLast=0;collapsible=1;marginBottom=0;rounded=0;shadow=0;strokeWidth=1;swimlaneFillColor=default;" parent="WIyWlLk6GJQsqaUBKTNV-1" vertex="1">
          <mxGeometry x="-580" y="690" width="160" height="130" as="geometry">
            <mxRectangle x="340" y="380" width="170" height="26" as="alternateBounds" />
          </mxGeometry>
        </mxCell>
        <mxCell id="wfxfI5iOZnwXjlkPvfiG-90" value="" style="line;html=1;strokeWidth=1;align=left;verticalAlign=middle;spacingTop=-1;spacingLeft=3;spacingRight=3;rotatable=0;labelPosition=right;points=[];portConstraint=eastwest;" parent="wfxfI5iOZnwXjlkPvfiG-88" vertex="1">
          <mxGeometry y="26" width="160" height="8" as="geometry" />
        </mxCell>
        <mxCell id="p2NiV_iMH0gN7rx2WyT5-14" value="&lt;div&gt;+ setDate(Date)&lt;/div&gt;&lt;div&gt;+ setTime(Time)&lt;br&gt;&lt;/div&gt;" style="text;html=1;align=left;verticalAlign=middle;resizable=0;points=[];autosize=1;strokeColor=none;fillColor=none;" parent="wfxfI5iOZnwXjlkPvfiG-88" vertex="1">
          <mxGeometry y="34" width="160" height="40" as="geometry" />
        </mxCell>
        <mxCell id="wfxfI5iOZnwXjlkPvfiG-91" value="" style="endArrow=block;endSize=10;endFill=0;shadow=0;strokeWidth=1;rounded=0;edgeStyle=elbowEdgeStyle;elbow=vertical;exitX=0.5;exitY=0;exitDx=0;exitDy=0;entryX=0.5;entryY=1;entryDx=0;entryDy=0;" parent="WIyWlLk6GJQsqaUBKTNV-1" edge="1" target="wfxfI5iOZnwXjlkPvfiG-88" source="wfxfI5iOZnwXjlkPvfiG-85">
          <mxGeometry width="160" relative="1" as="geometry">
            <mxPoint x="-400" y="870" as="sourcePoint" />
            <mxPoint x="-500" y="790" as="targetPoint" />
            <Array as="points" />
          </mxGeometry>
        </mxCell>
        <mxCell id="wfxfI5iOZnwXjlkPvfiG-92" value="" style="endArrow=block;endSize=10;endFill=0;shadow=0;strokeWidth=1;rounded=0;edgeStyle=elbowEdgeStyle;elbow=vertical;exitX=0.5;exitY=0;exitDx=0;exitDy=0;entryX=0.5;entryY=1;entryDx=0;entryDy=0;" parent="WIyWlLk6GJQsqaUBKTNV-1" edge="1" target="wfxfI5iOZnwXjlkPvfiG-88" source="wfxfI5iOZnwXjlkPvfiG-81">
          <mxGeometry width="160" relative="1" as="geometry">
            <mxPoint x="-600" y="870" as="sourcePoint" />
            <mxPoint x="-500" y="790" as="targetPoint" />
            <Array as="points">
              <mxPoint x="-540" y="860" />
            </Array>
          </mxGeometry>
        </mxCell>
        <mxCell id="wfxfI5iOZnwXjlkPvfiG-93" value="FeedbackOfRentable" style="swimlane;fontStyle=0;align=center;verticalAlign=top;childLayout=stackLayout;horizontal=1;startSize=26;horizontalStack=0;resizeParent=1;resizeLast=0;collapsible=1;marginBottom=0;rounded=0;shadow=0;strokeWidth=1;swimlaneFillColor=default;" parent="WIyWlLk6GJQsqaUBKTNV-1" vertex="1">
          <mxGeometry x="-470" y="354" width="160" height="120" as="geometry">
            <mxRectangle x="550" y="140" width="160" height="26" as="alternateBounds" />
          </mxGeometry>
        </mxCell>
        <mxCell id="p2NiV_iMH0gN7rx2WyT5-5" value="- target: Rentable" style="text;html=1;align=left;verticalAlign=middle;resizable=0;points=[];autosize=1;strokeColor=none;fillColor=none;" parent="wfxfI5iOZnwXjlkPvfiG-93" vertex="1">
          <mxGeometry y="26" width="160" height="30" as="geometry" />
        </mxCell>
        <mxCell id="wfxfI5iOZnwXjlkPvfiG-94" value="" style="line;html=1;strokeWidth=1;align=left;verticalAlign=middle;spacingTop=-1;spacingLeft=3;spacingRight=3;rotatable=0;labelPosition=right;points=[];portConstraint=eastwest;" parent="wfxfI5iOZnwXjlkPvfiG-93" vertex="1">
          <mxGeometry y="56" width="160" height="64" as="geometry" />
        </mxCell>
        <mxCell id="wfxfI5iOZnwXjlkPvfiG-95" value="ReservationController" style="swimlane;fontStyle=0;align=center;verticalAlign=top;childLayout=stackLayout;horizontal=1;startSize=26;horizontalStack=0;resizeParent=1;resizeLast=0;collapsible=1;marginBottom=0;rounded=0;shadow=0;strokeWidth=1;swimlaneFillColor=default;" parent="WIyWlLk6GJQsqaUBKTNV-1" vertex="1">
          <mxGeometry x="-680" y="1044" width="160" height="66" as="geometry">
            <mxRectangle x="550" y="140" width="160" height="26" as="alternateBounds" />
          </mxGeometry>
        </mxCell>
        <mxCell id="wfxfI5iOZnwXjlkPvfiG-96" value="" style="line;html=1;strokeWidth=1;align=left;verticalAlign=middle;spacingTop=-1;spacingLeft=3;spacingRight=3;rotatable=0;labelPosition=right;points=[];portConstraint=eastwest;" parent="wfxfI5iOZnwXjlkPvfiG-95" vertex="1">
          <mxGeometry y="26" width="160" height="8" as="geometry" />
        </mxCell>
        <mxCell id="wfxfI5iOZnwXjlkPvfiG-97" value="FeedbackController" style="swimlane;fontStyle=0;align=center;verticalAlign=top;childLayout=stackLayout;horizontal=1;startSize=26;horizontalStack=0;resizeParent=1;resizeLast=0;collapsible=1;marginBottom=0;rounded=0;shadow=0;strokeWidth=1;swimlaneFillColor=default;" parent="WIyWlLk6GJQsqaUBKTNV-1" vertex="1">
          <mxGeometry x="-508.5" y="1044" width="160" height="66" as="geometry">
            <mxRectangle x="550" y="140" width="160" height="26" as="alternateBounds" />
          </mxGeometry>
        </mxCell>
        <mxCell id="wfxfI5iOZnwXjlkPvfiG-98" value="" style="line;html=1;strokeWidth=1;align=left;verticalAlign=middle;spacingTop=-1;spacingLeft=3;spacingRight=3;rotatable=0;labelPosition=right;points=[];portConstraint=eastwest;" parent="wfxfI5iOZnwXjlkPvfiG-97" vertex="1">
          <mxGeometry y="26" width="160" height="8" as="geometry" />
        </mxCell>
        <mxCell id="gxtJP8Bp-ynCILGzR_Fp-0" value="Capability: enum" style="swimlane;fontStyle=0;align=center;verticalAlign=top;childLayout=stackLayout;horizontal=1;startSize=26;horizontalStack=0;resizeParent=1;resizeLast=0;collapsible=1;marginBottom=0;rounded=0;shadow=0;strokeWidth=1;fillColor=default;labelBackgroundColor=default;labelBorderColor=none;gradientColor=none;swimlaneFillColor=default;" vertex="1" parent="WIyWlLk6GJQsqaUBKTNV-1">
          <mxGeometry x="-25" y="100" width="100" height="80" as="geometry">
            <mxRectangle x="392" y="10" width="160" height="26" as="alternateBounds" />
          </mxGeometry>
        </mxCell>
        <mxCell id="gxtJP8Bp-ynCILGzR_Fp-1" value="TENANT,&#xa;LANDLORD,&#xa;ADMIN" style="text;align=left;verticalAlign=top;spacingLeft=4;spacingRight=4;overflow=hidden;rotatable=0;points=[[0,0.5],[1,0.5]];portConstraint=eastwest;" vertex="1" parent="gxtJP8Bp-ynCILGzR_Fp-0">
          <mxGeometry y="26" width="100" height="54" as="geometry" />
        </mxCell>
        <mxCell id="gxtJP8Bp-ynCILGzR_Fp-5" value="AreaOfCompetence: enum" style="swimlane;fontStyle=0;align=center;verticalAlign=top;childLayout=stackLayout;horizontal=1;startSize=26;horizontalStack=0;resizeParent=1;resizeLast=0;collapsible=1;marginBottom=0;rounded=0;shadow=0;strokeWidth=1;fillColor=default;labelBackgroundColor=default;labelBorderColor=none;gradientColor=none;swimlaneFillColor=default;" vertex="1" parent="WIyWlLk6GJQsqaUBKTNV-1">
          <mxGeometry x="-25" y="34" width="200" height="56" as="geometry">
            <mxRectangle x="340" y="380" width="170" height="26" as="alternateBounds" />
          </mxGeometry>
        </mxCell>
        <mxCell id="gxtJP8Bp-ynCILGzR_Fp-6" value="WORLD, EU, NA, SA, ASIA" style="text;html=1;align=left;verticalAlign=top;resizable=0;points=[];autosize=1;strokeColor=none;fillColor=none;" vertex="1" parent="gxtJP8Bp-ynCILGzR_Fp-5">
          <mxGeometry y="26" width="200" height="30" as="geometry" />
        </mxCell>
        <mxCell id="gxtJP8Bp-ynCILGzR_Fp-10" value="com.dnbias.hroom.user" style="text;html=1;align=left;verticalAlign=middle;rounded=0;fontStyle=0;fontFamily=Courier New;fontSize=20;" vertex="1" parent="WIyWlLk6GJQsqaUBKTNV-1">
          <mxGeometry x="-150" y="-10" width="308.5" height="30" as="geometry" />
        </mxCell>
        <mxCell id="wfxfI5iOZnwXjlkPvfiG-74" value="" style="endArrow=block;endSize=10;endFill=0;shadow=0;strokeWidth=1;rounded=0;edgeStyle=elbowEdgeStyle;elbow=vertical;exitX=0.25;exitY=0;exitDx=0;exitDy=0;entryX=1;entryY=0.25;entryDx=0;entryDy=0;" parent="WIyWlLk6GJQsqaUBKTNV-1" source="zkfFHV4jXpPFQw0GAbJ--6" edge="1" target="wfxfI5iOZnwXjlkPvfiG-71">
          <mxGeometry width="160" relative="1" as="geometry">
            <mxPoint x="-550" y="314.0000000000001" as="sourcePoint" />
            <mxPoint x="-180" y="310" as="targetPoint" />
            <Array as="points">
              <mxPoint x="-110" y="257" />
            </Array>
          </mxGeometry>
        </mxCell>
        <mxCell id="gxtJP8Bp-ynCILGzR_Fp-13" value="com.dnbias.hroom.service" style="text;html=1;align=left;verticalAlign=middle;rounded=0;fontStyle=0;fontFamily=Courier New;fontSize=20;" vertex="1" parent="WIyWlLk6GJQsqaUBKTNV-1">
          <mxGeometry x="610" y="-10" width="340" height="30" as="geometry" />
        </mxCell>
        <mxCell id="gxtJP8Bp-ynCILGzR_Fp-17" value="&lt;i&gt;TenantService&lt;/i&gt;" style="swimlane;fontStyle=0;childLayout=stackLayout;horizontal=1;startSize=26;fillColor=default;horizontalStack=0;resizeParent=1;resizeParentMax=0;resizeLast=0;collapsible=1;marginBottom=0;whiteSpace=wrap;html=1;swimlaneFillColor=default;" vertex="1" parent="WIyWlLk6GJQsqaUBKTNV-1">
          <mxGeometry x="620" y="34" width="200" height="110" as="geometry" />
        </mxCell>
        <mxCell id="gxtJP8Bp-ynCILGzR_Fp-18" value="+ saveTenant(Tenant): void&lt;br&gt;+ fetchTenantList(): List&amp;lt;Tenant&amp;gt;&lt;br&gt;+ updateTenant(Tenant, Long): void&lt;br&gt;+ deleteTenantById(Long): void" style="text;strokeColor=none;fillColor=none;align=left;verticalAlign=top;spacingLeft=4;spacingRight=4;overflow=hidden;rotatable=0;points=[[0,0.5],[1,0.5]];portConstraint=eastwest;whiteSpace=wrap;html=1;" vertex="1" parent="gxtJP8Bp-ynCILGzR_Fp-17">
          <mxGeometry y="26" width="200" height="84" as="geometry" />
        </mxCell>
        <mxCell id="gxtJP8Bp-ynCILGzR_Fp-21" value="&lt;i&gt;AdminService&lt;/i&gt;" style="swimlane;fontStyle=0;childLayout=stackLayout;horizontal=1;startSize=26;fillColor=default;horizontalStack=0;resizeParent=1;resizeParentMax=0;resizeLast=0;collapsible=1;marginBottom=0;whiteSpace=wrap;html=1;swimlaneFillColor=default;" vertex="1" parent="WIyWlLk6GJQsqaUBKTNV-1">
          <mxGeometry x="827" y="34" width="200" height="110" as="geometry" />
        </mxCell>
        <mxCell id="gxtJP8Bp-ynCILGzR_Fp-22" value="+ saveAdmin(Admin): void&lt;br&gt;+ fetchAdminList(): List&amp;lt;Admin&amp;gt;&lt;br&gt;+ updateAdmin(Admin, Long): void&lt;br&gt;+ deleteAdminById(Long): void" style="text;strokeColor=none;fillColor=none;align=left;verticalAlign=top;spacingLeft=4;spacingRight=4;overflow=hidden;rotatable=0;points=[[0,0.5],[1,0.5]];portConstraint=eastwest;whiteSpace=wrap;html=1;" vertex="1" parent="gxtJP8Bp-ynCILGzR_Fp-21">
          <mxGeometry y="26" width="200" height="84" as="geometry" />
        </mxCell>
        <mxCell id="gxtJP8Bp-ynCILGzR_Fp-23" value="&lt;i&gt;LandlordService&lt;/i&gt;" style="swimlane;fontStyle=0;childLayout=stackLayout;horizontal=1;startSize=26;fillColor=default;horizontalStack=0;resizeParent=1;resizeParentMax=0;resizeLast=0;collapsible=1;marginBottom=0;whiteSpace=wrap;html=1;swimlaneFillColor=default;" vertex="1" parent="WIyWlLk6GJQsqaUBKTNV-1">
          <mxGeometry x="660" y="-410" width="230" height="110" as="geometry" />
        </mxCell>
        <mxCell id="gxtJP8Bp-ynCILGzR_Fp-24" value="+ saveLandlord(Landlord): void&lt;br&gt;+ fetchLandlordList(): List&amp;lt;Landlord&amp;gt;&lt;br&gt;+ updateLandlord(Landlord, Long): void&lt;br&gt;+ deleteLandlordById(Long): void" style="text;strokeColor=none;fillColor=none;align=left;verticalAlign=top;spacingLeft=4;spacingRight=4;overflow=hidden;rotatable=0;points=[[0,0.5],[1,0.5]];portConstraint=eastwest;whiteSpace=wrap;html=1;" vertex="1" parent="gxtJP8Bp-ynCILGzR_Fp-23">
          <mxGeometry y="26" width="230" height="84" as="geometry" />
        </mxCell>
        <mxCell id="gxtJP8Bp-ynCILGzR_Fp-25" value="&lt;i&gt;FeedbackOfTenantService&lt;/i&gt;" style="swimlane;fontStyle=0;childLayout=stackLayout;horizontal=1;startSize=26;fillColor=default;horizontalStack=0;resizeParent=1;resizeParentMax=0;resizeLast=0;collapsible=1;marginBottom=0;whiteSpace=wrap;html=1;swimlaneFillColor=default;" vertex="1" parent="WIyWlLk6GJQsqaUBKTNV-1">
          <mxGeometry x="620" y="154" width="300" height="110" as="geometry" />
        </mxCell>
        <mxCell id="gxtJP8Bp-ynCILGzR_Fp-26" value="+ saveFeedback(FeedbackOfTenant): void&lt;br&gt;+ fetchFeedbackList(): List&amp;lt;FeedbackOfTenant&amp;gt;&lt;br&gt;+ updateFeedback(FeedbackOfTenant, Long): void&lt;br&gt;+ deleteFeedbackById(Long): void" style="text;strokeColor=none;fillColor=none;align=left;verticalAlign=top;spacingLeft=4;spacingRight=4;overflow=hidden;rotatable=0;points=[[0,0.5],[1,0.5]];portConstraint=eastwest;whiteSpace=wrap;html=1;" vertex="1" parent="gxtJP8Bp-ynCILGzR_Fp-25">
          <mxGeometry y="26" width="300" height="84" as="geometry" />
        </mxCell>
        <mxCell id="gxtJP8Bp-ynCILGzR_Fp-29" value="&lt;i&gt;FeedbackOfInsertionService&lt;/i&gt;" style="swimlane;fontStyle=0;childLayout=stackLayout;horizontal=1;startSize=26;fillColor=default;horizontalStack=0;resizeParent=1;resizeParentMax=0;resizeLast=0;collapsible=1;marginBottom=0;whiteSpace=wrap;html=1;swimlaneFillColor=default;" vertex="1" parent="WIyWlLk6GJQsqaUBKTNV-1">
          <mxGeometry x="941" y="154" width="300" height="110" as="geometry" />
        </mxCell>
        <mxCell id="gxtJP8Bp-ynCILGzR_Fp-30" value="+ saveFeedback(FeedbackOfInsertion): void&lt;br&gt;+ fetchFeedbackList(): List&amp;lt;FeedbackOfInsertion&amp;gt;&lt;br&gt;+ updateFeedback(FeedbackOfInsertion, Long): void&lt;br&gt;+ deleteFeedbackById(Long): void" style="text;strokeColor=none;fillColor=none;align=left;verticalAlign=top;spacingLeft=4;spacingRight=4;overflow=hidden;rotatable=0;points=[[0,0.5],[1,0.5]];portConstraint=eastwest;whiteSpace=wrap;html=1;" vertex="1" parent="gxtJP8Bp-ynCILGzR_Fp-29">
          <mxGeometry y="26" width="300" height="84" as="geometry" />
        </mxCell>
        <mxCell id="gxtJP8Bp-ynCILGzR_Fp-32" value="com.dnbias.hroom.feedback" style="text;html=1;align=left;verticalAlign=middle;rounded=0;fontStyle=0;fontFamily=Courier New;fontSize=20;fillColor=none;strokeColor=none;" vertex="1" parent="WIyWlLk6GJQsqaUBKTNV-1">
          <mxGeometry x="-700" y="-10" width="308.5" height="30" as="geometry" />
        </mxCell>
        <mxCell id="gxtJP8Bp-ynCILGzR_Fp-33" value="" style="shape=folder;fontStyle=1;spacingTop=10;tabWidth=40;tabHeight=14;tabPosition=left;html=1;whiteSpace=wrap;fillColor=#e1d5e7;strokeColor=#9673a6;" vertex="1" parent="WIyWlLk6GJQsqaUBKTNV-1">
          <mxGeometry x="1350" y="-30" width="730" height="550" as="geometry" />
        </mxCell>
        <mxCell id="gxtJP8Bp-ynCILGzR_Fp-34" value="com.dnbias.hroom.controller" style="text;html=1;align=left;verticalAlign=middle;rounded=0;fontStyle=0;fontFamily=Courier New;fontSize=20;" vertex="1" parent="WIyWlLk6GJQsqaUBKTNV-1">
          <mxGeometry x="1360" y="-10" width="340" height="30" as="geometry" />
        </mxCell>
        <mxCell id="gxtJP8Bp-ynCILGzR_Fp-39" value="@RestController&lt;br&gt;UserController" style="swimlane;fontStyle=0;childLayout=stackLayout;horizontal=1;startSize=40;fillColor=default;horizontalStack=0;resizeParent=1;resizeParentMax=0;resizeLast=0;collapsible=1;marginBottom=0;whiteSpace=wrap;html=1;swimlaneFillColor=default;" vertex="1" parent="WIyWlLk6GJQsqaUBKTNV-1">
          <mxGeometry x="1370" y="30" width="230" height="172" as="geometry" />
        </mxCell>
        <mxCell id="gxtJP8Bp-ynCILGzR_Fp-40" value="- service: UserService" style="text;strokeColor=none;fillColor=none;align=left;verticalAlign=top;spacingLeft=4;spacingRight=4;overflow=hidden;rotatable=0;points=[[0,0.5],[1,0.5]];portConstraint=eastwest;whiteSpace=wrap;html=1;" vertex="1" parent="gxtJP8Bp-ynCILGzR_Fp-39">
          <mxGeometry y="40" width="230" height="20" as="geometry" />
        </mxCell>
        <mxCell id="gxtJP8Bp-ynCILGzR_Fp-41" value="" style="line;strokeWidth=1;fillColor=none;align=left;verticalAlign=middle;spacingTop=-1;spacingLeft=3;spacingRight=3;rotatable=0;labelPosition=right;points=[];portConstraint=eastwest;strokeColor=inherit;" vertex="1" parent="gxtJP8Bp-ynCILGzR_Fp-39">
          <mxGeometry y="60" width="230" height="10" as="geometry" />
        </mxCell>
        <mxCell id="gxtJP8Bp-ynCILGzR_Fp-42" value="+ saveUser(User): void&lt;br&gt;+ fetchUserList(): List&amp;lt;Landlord&amp;gt;&lt;br&gt;+ updateUser(User, Long): void&lt;br&gt;+ deleteUserById(Long): void" style="text;strokeColor=none;fillColor=none;align=left;verticalAlign=top;spacingLeft=4;spacingRight=4;overflow=hidden;rotatable=0;points=[[0,0.5],[1,0.5]];portConstraint=eastwest;whiteSpace=wrap;html=1;" vertex="1" parent="gxtJP8Bp-ynCILGzR_Fp-39">
          <mxGeometry y="70" width="230" height="102" as="geometry" />
        </mxCell>
        <mxCell id="gxtJP8Bp-ynCILGzR_Fp-44" value="" style="shape=folder;fontStyle=1;spacingTop=10;tabWidth=40;tabHeight=14;tabPosition=left;html=1;whiteSpace=wrap;" vertex="1" parent="WIyWlLk6GJQsqaUBKTNV-1">
          <mxGeometry x="600" y="-610" width="730" height="550" as="geometry" />
        </mxCell>
        <mxCell id="gxtJP8Bp-ynCILGzR_Fp-45" value="com.dnbias.hroom.repository" style="text;html=1;align=left;verticalAlign=middle;rounded=0;fontStyle=0;fontFamily=Courier New;fontSize=20;" vertex="1" parent="WIyWlLk6GJQsqaUBKTNV-1">
          <mxGeometry x="610" y="-590" width="340" height="30" as="geometry" />
        </mxCell>
        <mxCell id="gxtJP8Bp-ynCILGzR_Fp-57" style="edgeStyle=orthogonalEdgeStyle;rounded=0;orthogonalLoop=1;jettySize=auto;html=1;exitX=0.5;exitY=0;exitDx=0;exitDy=0;entryX=0.5;entryY=1;entryDx=0;entryDy=0;" edge="1" parent="WIyWlLk6GJQsqaUBKTNV-1" source="gxtJP8Bp-ynCILGzR_Fp-48" target="gxtJP8Bp-ynCILGzR_Fp-50">
          <mxGeometry relative="1" as="geometry" />
        </mxCell>
        <mxCell id="gxtJP8Bp-ynCILGzR_Fp-61" style="edgeStyle=orthogonalEdgeStyle;rounded=0;orthogonalLoop=1;jettySize=auto;html=1;entryX=0.5;entryY=1;entryDx=0;entryDy=0;" edge="1" parent="WIyWlLk6GJQsqaUBKTNV-1" source="gxtJP8Bp-ynCILGzR_Fp-52" target="gxtJP8Bp-ynCILGzR_Fp-50">
          <mxGeometry relative="1" as="geometry" />
        </mxCell>
        <mxCell id="gxtJP8Bp-ynCILGzR_Fp-63" style="edgeStyle=orthogonalEdgeStyle;rounded=0;orthogonalLoop=1;jettySize=auto;html=1;entryX=0.5;entryY=1;entryDx=0;entryDy=0;" edge="1" parent="WIyWlLk6GJQsqaUBKTNV-1" source="gxtJP8Bp-ynCILGzR_Fp-54" target="gxtJP8Bp-ynCILGzR_Fp-50">
          <mxGeometry relative="1" as="geometry" />
        </mxCell>
        <mxCell id="gxtJP8Bp-ynCILGzR_Fp-48" value="@Repository&lt;br&gt;&lt;i&gt;TenantRepository &lt;/i&gt;&amp;lt;Tenant, Long&amp;gt;" style="swimlane;fontStyle=0;childLayout=stackLayout;horizontal=1;startSize=40;fillColor=default;horizontalStack=0;resizeParent=1;resizeParentMax=0;resizeLast=0;collapsible=1;marginBottom=0;whiteSpace=wrap;html=1;swimlaneFillColor=default;" vertex="1" parent="WIyWlLk6GJQsqaUBKTNV-1">
          <mxGeometry x="650" y="-430" width="230" height="50" as="geometry" />
        </mxCell>
        <mxCell id="gxtJP8Bp-ynCILGzR_Fp-50" value="CrudRepository &amp;lt;T, L&amp;gt;" style="swimlane;fontStyle=0;childLayout=stackLayout;horizontal=1;startSize=40;fillColor=default;horizontalStack=0;resizeParent=1;resizeParentMax=0;resizeLast=0;collapsible=1;marginBottom=0;whiteSpace=wrap;html=1;swimlaneFillColor=default;" vertex="1" parent="WIyWlLk6GJQsqaUBKTNV-1">
          <mxGeometry x="827" y="-530" width="230" height="50" as="geometry" />
        </mxCell>
        <mxCell id="gxtJP8Bp-ynCILGzR_Fp-58" style="edgeStyle=orthogonalEdgeStyle;rounded=0;orthogonalLoop=1;jettySize=auto;html=1;exitX=0.5;exitY=0;exitDx=0;exitDy=0;entryX=0.5;entryY=1;entryDx=0;entryDy=0;" edge="1" parent="WIyWlLk6GJQsqaUBKTNV-1" source="gxtJP8Bp-ynCILGzR_Fp-51" target="gxtJP8Bp-ynCILGzR_Fp-50">
          <mxGeometry relative="1" as="geometry" />
        </mxCell>
        <mxCell id="gxtJP8Bp-ynCILGzR_Fp-59" style="edgeStyle=orthogonalEdgeStyle;rounded=0;orthogonalLoop=1;jettySize=auto;html=1;entryX=0.5;entryY=1;entryDx=0;entryDy=0;" edge="1" parent="WIyWlLk6GJQsqaUBKTNV-1" source="gxtJP8Bp-ynCILGzR_Fp-53" target="gxtJP8Bp-ynCILGzR_Fp-50">
          <mxGeometry relative="1" as="geometry" />
        </mxCell>
        <mxCell id="gxtJP8Bp-ynCILGzR_Fp-60" style="edgeStyle=orthogonalEdgeStyle;rounded=0;orthogonalLoop=1;jettySize=auto;html=1;entryX=0.5;entryY=1;entryDx=0;entryDy=0;" edge="1" parent="WIyWlLk6GJQsqaUBKTNV-1" source="gxtJP8Bp-ynCILGzR_Fp-55" target="gxtJP8Bp-ynCILGzR_Fp-50">
          <mxGeometry relative="1" as="geometry" />
        </mxCell>
        <mxCell id="gxtJP8Bp-ynCILGzR_Fp-64" style="edgeStyle=orthogonalEdgeStyle;rounded=0;orthogonalLoop=1;jettySize=auto;html=1;entryX=0.5;entryY=1;entryDx=0;entryDy=0;" edge="1" parent="WIyWlLk6GJQsqaUBKTNV-1" source="gxtJP8Bp-ynCILGzR_Fp-56" target="gxtJP8Bp-ynCILGzR_Fp-50">
          <mxGeometry relative="1" as="geometry" />
        </mxCell>
        <mxCell id="gxtJP8Bp-ynCILGzR_Fp-51" value="@Repository&lt;br&gt;&lt;i&gt;AdminRepository &lt;/i&gt;&amp;lt;Admin, Long&amp;gt;" style="swimlane;fontStyle=0;childLayout=stackLayout;horizontal=1;startSize=40;fillColor=default;horizontalStack=0;resizeParent=1;resizeParentMax=0;resizeLast=0;collapsible=1;marginBottom=0;whiteSpace=wrap;html=1;swimlaneFillColor=default;" vertex="1" parent="WIyWlLk6GJQsqaUBKTNV-1">
          <mxGeometry x="890" y="-430" width="230" height="50" as="geometry" />
        </mxCell>
        <mxCell id="gxtJP8Bp-ynCILGzR_Fp-52" value="@Repository&lt;br&gt;&lt;i&gt;LandlordRepository &lt;/i&gt;&amp;lt;Tenant, Long&amp;gt;" style="swimlane;fontStyle=0;childLayout=stackLayout;horizontal=1;startSize=40;fillColor=default;horizontalStack=0;resizeParent=1;resizeParentMax=0;resizeLast=0;collapsible=1;marginBottom=0;whiteSpace=wrap;html=1;swimlaneFillColor=default;" vertex="1" parent="WIyWlLk6GJQsqaUBKTNV-1">
          <mxGeometry x="650" y="-370" width="230" height="50" as="geometry" />
        </mxCell>
        <mxCell id="gxtJP8Bp-ynCILGzR_Fp-53" value="@Repository&lt;br&gt;&lt;i&gt;FeedbackOfTenantRepository &lt;/i&gt;&amp;lt;FeedbackOfTenant, Long&amp;gt;" style="swimlane;fontStyle=0;childLayout=stackLayout;horizontal=1;startSize=40;fillColor=default;horizontalStack=0;resizeParent=1;resizeParentMax=0;resizeLast=0;collapsible=1;marginBottom=0;whiteSpace=wrap;html=1;swimlaneFillColor=default;" vertex="1" parent="WIyWlLk6GJQsqaUBKTNV-1">
          <mxGeometry x="890" y="-370" width="350" height="50" as="geometry" />
        </mxCell>
        <mxCell id="gxtJP8Bp-ynCILGzR_Fp-54" value="@Repository&lt;br&gt;&lt;i&gt;RoomRepository &lt;/i&gt;&amp;lt;Room, Long&amp;gt;" style="swimlane;fontStyle=0;childLayout=stackLayout;horizontal=1;startSize=40;fillColor=default;horizontalStack=0;resizeParent=1;resizeParentMax=0;resizeLast=0;collapsible=1;marginBottom=0;whiteSpace=wrap;html=1;swimlaneFillColor=default;" vertex="1" parent="WIyWlLk6GJQsqaUBKTNV-1">
          <mxGeometry x="650" y="-310" width="230" height="50" as="geometry" />
        </mxCell>
        <mxCell id="gxtJP8Bp-ynCILGzR_Fp-55" value="@Repository&lt;br&gt;&lt;i&gt;FeedbackOfInsertionRepository &lt;/i&gt;&amp;lt;FeedbackOfInsertion, Long&amp;gt;" style="swimlane;fontStyle=0;childLayout=stackLayout;horizontal=1;startSize=40;fillColor=default;horizontalStack=0;resizeParent=1;resizeParentMax=0;resizeLast=0;collapsible=1;marginBottom=0;whiteSpace=wrap;html=1;swimlaneFillColor=default;" vertex="1" parent="WIyWlLk6GJQsqaUBKTNV-1">
          <mxGeometry x="890" y="-310" width="350" height="50" as="geometry" />
        </mxCell>
        <mxCell id="gxtJP8Bp-ynCILGzR_Fp-56" value="@Repository&lt;br&gt;&lt;i&gt;ApartmentRepository &lt;/i&gt;&amp;lt;Apartment, Long&amp;gt;" style="swimlane;fontStyle=0;childLayout=stackLayout;horizontal=1;startSize=40;fillColor=default;horizontalStack=0;resizeParent=1;resizeParentMax=0;resizeLast=0;collapsible=1;marginBottom=0;whiteSpace=wrap;html=1;swimlaneFillColor=default;" vertex="1" parent="WIyWlLk6GJQsqaUBKTNV-1">
          <mxGeometry x="650" y="-250" width="230" height="50" as="geometry" />
        </mxCell>
      </root>
    </mxGraphModel>
  </diagram>
</mxfile>
